Coordinates
version=1
nRows=13
nColumns=38
inDegrees=no

Units are S.I. units (second, meters, Newtons, ...)
If the header above contains a line with 'inDegrees', this indicates whether rotational values are in degrees (yes) or radians (no).

endheader
time	pelvis_tilt	pelvis_list	pelvis_rotation	pelvis_tx	pelvis_ty	pelvis_tz	hip_flexion_r	hip_adduction_r	hip_rotation_r	knee_angle_r	ankle_angle_r	subtalar_angle_r	mtp_angle_r	hip_flexion_l	hip_adduction_l	hip_rotation_l	knee_angle_l	ankle_angle_l	subtalar_angle_l	mtp_angle_l	lumbar_extension	lumbar_bending	lumbar_rotation	arm_flex_r	arm_add_r	arm_rot_r	elbow_flex_r	pro_sup_r	wrist_flex_r	wrist_dev_r	arm_flex_l	arm_add_l	arm_rot_l	elbow_flex_l	pro_sup_l	wrist_flex_l	wrist_dev_l
0.96	2.94157	1.06919	1.72463	0.5647	0.407054	0.99995	0.268057	-0.103646	-0.0996826	0.52437	-0.156425	0	0	0.751637	0.0845408	-0.138772	0	-0.48003	0	0	0.48013	-0.0843872	0.0818033	-0.191378	-0.321344	0.085876	0.747394	1.45614	0	0	-0.41015	-0.0849516	-0.491528	0.659403	1.08422	0	0
0.97	2.92147	1.06093	1.74432	0.564916	0.392916	0.999317	0.290844	-0.122933	-0.0963946	0.577746	-0.179859	0	0	0.757332	0.0942561	-0.126409	0	-0.497575	0	0	0.490891	-0.101567	0.0793754	-0.189368	-0.310765	0.0890241	0.725284	1.4563	0	0	-0.414871	-0.0901783	-0.492831	0.656424	1.08291	0	0
0.98	2.90015	1.05042	1.76809	0.565439	0.379138	0.99873	0.318597	-0.144347	-0.0922799	0.63408	-0.21478	0	0	0.764654	0.107208	-0.108339	0	-0.506219	0	0	0.502719	-0.122132	0.0725598	-0.184944	-0.29949	0.0949666	0.700224	1.45702	0	0	-0.421704	-0.0954129	-0.494711	0.656222	1.08097	0	0
0.99	2.88153	1.03801	1.79266	0.566304	0.365708	0.998099	0.349823	-0.16539	-0.0873905	0.689745	-0.272852	0	0	0.780202	0.121926	-0.0961118	0.0190497	-0.495981	0	0	0.515155	-0.145226	0.0591436	-0.176533	-0.28857	0.108311	0.671189	1.45763	0	0	-0.433221	-0.0995052	-0.498631	0.663015	1.07561	0	0
1	2.87165	1.04201	1.80614	0.566749	0.352398	0.997965	0.365145	-0.175033	-0.0783836	0.741049	-0.317262	0	0	0.83197	0.111334	-0.207536	0.188884	-0.409968	0	0	0.506198	-0.156589	0.0471342	-0.170953	-0.284158	0.120475	0.655147	1.44984	0	0	-0.435374	-0.101671	-0.501151	0.666008	1.07047	0	0
1.01	2.85886	1.05429	1.81931	0.566926	0.338976	0.998481	0.373303	-0.181632	-0.0665545	0.791181	-0.359871	0	0	0.847323	0.0995593	-0.272097	0.296168	-0.360778	0	0	0.487106	-0.164579	0.0400394	-0.166828	-0.279855	0.126532	0.641276	1.44455	0	0	-0.431311	-0.103949	-0.503016	0.664635	1.06817	0	0
1.02	2.84526	1.06695	1.83099	0.56716	0.325804	0.999152	0.383574	-0.186744	-0.052052	0.841263	-0.401473	0	0	0.847295	0.0918467	-0.3085	0.367096	-0.324745	0	0	0.46789	-0.170306	0.0362429	-0.164124	-0.276921	0.132181	0.628634	1.43955	0	0	-0.424696	-0.105723	-0.504402	0.660377	1.06749	0	0
1.03	2.83193	1.07894	1.83941	0.567291	0.312896	0.999927	0.397039	-0.190011	-0.0351723	0.890075	-0.445851	0	0	0.839468	0.0856605	-0.333275	0.417155	-0.294356	0	0	0.450455	-0.173495	0.0356623	-0.161877	-0.275273	0.139809	0.615865	1.4341	0	0	-0.416937	-0.107028	-0.504795	0.653867	1.06847	0	0
1.04	2.81892	1.09091	1.84453	0.567212	0.300162	1.001	0.412309	-0.19138	-0.017077	0.936305	-0.494464	0	0	0.825271	0.0795618	-0.35311	0.451981	-0.268365	0	0	0.434167	-0.174208	0.0376998	-0.158817	-0.274532	0.15092	0.601399	1.4275	0	0	-0.408103	-0.108037	-0.504089	0.644343	1.0708	0	0
1.05	2.80725	1.10219	1.84632	0.56696	0.287495	1.00237	0.429415	-0.191042	0.000938981	0.981135	-0.532312	0	0	0.806962	0.0740376	-0.367896	0.474795	-0.247665	0	0	0.420135	-0.172764	0.0410797	-0.155253	-0.274283	0.164884	0.585033	1.42238	0	0	-0.399497	-0.108755	-0.50209	0.632758	1.07303	0	0
1.06	2.79753	1.11252	1.8449	0.566576	0.274912	1.004	0.447964	-0.189066	0.0191219	1.02382	-0.552297	0	0	0.786806	0.0690316	-0.37813	0.489789	-0.229803	0	0	0.408716	-0.169336	0.045234	-0.151325	-0.274102	0.180755	0.566871	1.41804	0	0	-0.391794	-0.108992	-0.499224	0.620213	1.07465	0	0
1.07	2.79	1.12191	1.84147	0.566204	0.262439	1.00588	0.467233	-0.186173	0.0364597	1.06367	-0.555672	0	0	0.765662	0.0648202	-0.385499	0.498708	-0.213015	0	0	0.399718	-0.164552	0.0491378	-0.146989	-0.274249	0.199697	0.546925	1.41306	0	0	-0.384928	-0.108625	-0.496257	0.606968	1.07501	0	0
1.08	2.78527	1.12939	1.83754	0.565965	0.250047	1.00792	0.487349	-0.183314	0.0510669	1.10031	-0.544641	0	0	0.744641	0.062159	-0.390859	0.501724	-0.199215	0	0	0.394218	-0.159549	0.0509562	-0.14309	-0.274281	0.220841	0.525979	1.40802	0	0	-0.379403	-0.107818	-0.494158	0.593197	1.07342	0	0
